<svg height="480pt" viewBox="0 0 480 480" width="480pt" xmlns="http://www.w3.org/2000/svg"><path d="m440 0h-400c-22.082031.0273438-39.9726562 17.917969-40 40v272c.0273438 22.082031 17.917969 39.972656 40 40h193.425781l7.0625 19.3125c.121094.335938 9.039063 17.289062 9.039063 17.289062 4.242187 8.058594 6.464844 17.027344 6.472656 26.132813v1.265625h-16v64h176v-64h-16.113281l.050781-6.398438c.019531-4.679687 1.410156-9.25 4-13.144531l5.320312-8c4.386719-6.554687 6.730469-14.257812 6.742188-22.144531v-14.3125h24c22.082031-.027344 39.972656-17.917969 40-40v-272c-.027344-22.082031-17.917969-39.9726562-40-40zm-328 48h48v104l-19.199219-14.398438c-2.84375-2.136718-6.757812-2.136718-9.601562 0l-19.199219 14.398438zm-11.574219 127.199219c2.714844 1.34375 5.960938 1.03125 8.375-.800781l27.199219-20.398438 27.199219 20.398438c2.425781 1.820312 5.667969 2.113281 8.378906.757812s4.421875-4.125 4.421875-7.15625v-120h256v256h-16v-2.550781c-.121094-20.753907-16.007812-38.011719-36.679688-39.847657l-59.320312-4.960937v-64.640625c0-13.253906-10.746094-24-24-24s-24 10.746094-24 24v110.464844l-17.070312-29.601563c-6.667969-11.097656-20.933594-14.910156-32.246094-8.613281s-15.59375 20.425781-9.675782 31.941406l2.855469 7.785156h-151.863281v-255.976562h32v120c-.015625 3.046875 1.699219 5.839844 4.425781 7.199219zm299.574219 288.800781h-144v-32h144zm0-97.6875c.015625 4.734375-1.378906 9.367188-4 13.3125l-5.320312 8c-4.328126 6.488281-6.664063 14.101562-6.710938 21.902344l-.082031 6.472656h-111.886719v-1.265625c-.007812-11.707031-2.863281-23.238281-8.320312-33.597656l-8.351563-15.832031-8.929687-24.320313v-.183594l-18.550782-50.703125c-.160156-.433594-.355468-.851562-.582031-1.25-1.601563-2.796875-1.371094-6.28125.589844-8.839844 1.960937-2.558593 5.265625-3.691406 8.382812-2.871093 2.050781.539062 3.796875 1.878906 4.851563 3.71875l17.078125 29.601562c3.621093 6.269531 11.003906 9.328125 17.996093 7.453125 6.996094-1.875 11.859376-8.210937 11.859376-15.453125v-110.457031c0-4.417969 3.582031-8 8-8 4.417968 0 8 3.582031 8 8v72c-.015626 4.171875 3.179687 7.652344 7.335937 8l66.65625 5.550781c12.390625 1.109375 21.910156 11.457031 21.984375 23.898438zm64-54.3125c0 13.253906-10.746094 24-24 24h-24v-16h24c4.417969 0 8-3.582031 8-8v-272c0-4.417969-3.582031-8-8-8h-384c-4.417969 0-8 3.582031-8 8v272c0 4.417969 3.582031 8 8 8h165.710938l5.855468 16h-187.566406c-13.253906 0-24-10.746094-24-24v-272c0-13.253906 10.746094-24 24-24h400c13.253906 0 24 10.746094 24 24zm0 0"/><path d="m32 152c-4.417969 0-8 3.582031-8 8v24c0 4.417969 3.582031 8 8 8s8-3.582031 8-8v-24c0-4.417969-3.582031-8-8-8zm0 0"/></svg>