<?xml version="1.0" encoding="iso-8859-1"?>
<!-- Generator: Adobe Illustrator 17.1.0, SVG Export Plug-In . SVG Version: 6.00 Build 0)  -->
<!DOCTYPE svg PUBLIC "-//W3C//DTD SVG 1.1//EN" "http://www.w3.org/Graphics/SVG/1.1/DTD/svg11.dtd">
<svg version="1.1" id="Capa_1" xmlns="http://www.w3.org/2000/svg" xmlns:xlink="http://www.w3.org/1999/xlink" x="0px" y="0px"
	 viewBox="0 0 478.8 478.8" style="enable-background:new 0 0 478.8 478.8;" xml:space="preserve">
<path d="M447.358,103.871c2.114-2.348,2.649-5.721,1.364-8.607c-1.285-2.887-4.149-4.747-7.309-4.747H314.649l8.303-64.06
	C323.725,20.496,328.84,16,334.852,16h72c4.418,0,8-3.582,8-8s-3.582-8-8-8h-72c-14.027,0-25.965,10.49-27.768,24.401l-8.569,66.116
	H196.171c-4.041-42.351-39.805-75.588-83.197-75.588c-46.09,0-83.588,37.498-83.588,83.588c0,20.995,7.815,41.068,22.006,56.521
	c14.102,15.357,33.262,24.847,53.95,26.722c0.246,0.022,0.489,0.033,0.731,0.033c4.092,0,7.582-3.124,7.958-7.278
	c0.399-4.4-2.845-8.291-7.245-8.689c-35.004-3.172-61.4-32.109-61.4-67.309c0-37.269,30.32-67.588,67.588-67.588
	c34.56,0,63.127,26.079,67.099,59.588h-10.789c-1.724-12.191-7.325-23.146-15.515-31.584c-0.178-0.22-0.367-0.434-0.572-0.639
	c-0.204-0.204-0.418-0.394-0.638-0.572c-10.248-9.947-24.209-16.089-39.584-16.089c-15.376,0-29.336,6.142-39.584,16.089
	c-0.22,0.178-0.433,0.367-0.638,0.571c-0.205,0.205-0.394,0.418-0.572,0.638c-9.879,10.178-15.997,24.019-16.081,39.27
	c-0.001,0.053-0.008,0.104-0.008,0.158c0,0.018,0.003,0.035,0.003,0.052c0,0.035-0.003,0.069-0.003,0.104
	c0,15.375,6.142,29.336,16.089,39.584c0.178,0.22,0.367,0.434,0.572,0.638c0.204,0.204,0.418,0.394,0.638,0.571
	c10.248,9.947,24.209,16.089,39.585,16.089c11.163,0,21.995-3.276,31.216-9.333l7.136,8.103c-3.225,2.227-6.632,4.176-10.198,5.813
	c-4.016,1.843-5.777,6.592-3.934,10.608c1.347,2.935,4.245,4.665,7.276,4.665c1.116,0,2.251-0.235,3.332-0.731
	c4.985-2.288,9.718-5.069,14.155-8.283l107.237,121.766v130.46c-17.454,1.97-32.821,10.445-44.799,24.819
	c-10.18,12.216-14.335,24.47-14.507,24.985c-0.813,2.439-0.404,5.121,1.1,7.208c1.503,2.086,3.918,3.322,6.49,3.322H336.91
	c2.572,0,4.986-1.236,6.49-3.322c1.504-2.086,1.913-4.768,1.1-7.208c-0.172-0.516-4.326-12.769-14.506-24.985
	c-11.978-14.374-27.345-22.848-44.799-24.819V283.939L447.358,103.871z M291.094,210.011c0.349,0.045,0.696,0.067,1.039,0.067
	c3.96,0,7.401-2.94,7.923-6.973l6.836-52.744h77.066L275.427,270.875L169.293,150.361h121.466l-6.57,50.688
	C283.621,205.431,286.713,209.443,291.094,210.011z M423.443,106.517l-25.076,27.844h-89.401l3.609-27.844H423.443z
	 M292.833,134.361H155.202l-24.522-27.844h165.762L292.833,134.361z M120.974,138.602v-11.646c0-4.418-3.582-8-8-8s-8,3.582-8,8
	v11.652c-5.34-1.064-10.307-3.169-14.681-6.097l8.228-8.228c3.125-3.124,3.125-8.189,0-11.313c-3.124-3.124-8.189-3.124-11.313,0
	l-8.228,8.228c-2.956-4.417-5.072-9.439-6.125-14.837h11.68c4.418,0,8-3.582,8-8s-3.582-8-8-8H72.911
	c1.073-5.281,3.17-10.193,6.069-14.525l8.228,8.228c1.562,1.562,3.609,2.343,5.657,2.343s4.095-0.781,5.657-2.343
	c3.125-3.124,3.125-8.189,0-11.313l-8.228-8.228c4.374-2.928,9.341-5.034,14.681-6.097v11.652c0,4.418,3.582,8,8,8s8-3.582,8-8
	V58.425c5.34,1.064,10.307,3.169,14.681,6.097l-8.228,8.228c-3.125,3.124-3.125,8.189,0,11.313c1.562,1.562,3.609,2.343,5.657,2.343
	s4.095-0.781,5.657-2.343l8.228-8.228c2.928,4.374,5.034,9.342,6.097,14.681h-40.092c-3.144,0-5.996,1.841-7.291,4.706
	s-0.791,6.222,1.287,8.581l26.494,30.084C129.589,136.134,125.371,137.726,120.974,138.602z M324.297,462.8h-94.134
	c6.912-11.647,21.434-28.787,47.031-28.787C303.005,434.013,317.45,451.132,324.297,462.8z"/>
<g>
</g>
<g>
</g>
<g>
</g>
<g>
</g>
<g>
</g>
<g>
</g>
<g>
</g>
<g>
</g>
<g>
</g>
<g>
</g>
<g>
</g>
<g>
</g>
<g>
</g>
<g>
</g>
<g>
</g>
</svg>
